<svg width="140" height="140" viewBox="0 0 140 140" fill="none" xmlns="http://www.w3.org/2000/svg">
<rect width="140" height="140" rx="32" fill="#121212"/>
<path d="M19.2871 80L12.9297 58.8623H19.9609L23.3154 74.1113H23.4326L26.7871 58.8623H33.8184L27.4609 80H19.2871ZM35.7227 80V58.8623H45.2441C47.0605 58.8623 48.5889 59.1406 49.8291 59.6973C51.0791 60.2539 52.0264 61.0693 52.6709 62.1436C53.3154 63.2178 53.6377 64.5361 53.6377 66.0986V66.1279C53.6377 67.4463 53.3252 68.6523 52.7002 69.7461C52.085 70.8398 51.2646 71.6357 50.2393 72.1338L54.2529 80H47.3096L43.9697 73.0566C43.9307 73.0566 43.8867 73.0566 43.8379 73.0566C43.7891 73.0566 43.7402 73.0566 43.6914 73.0566H41.9336V80H35.7227ZM41.9336 68.6768H44.5264C45.3662 68.6768 46.04 68.4375 46.5479 67.959C47.0557 67.4805 47.3096 66.8555 47.3096 66.084V66.0547C47.3096 65.2832 47.0508 64.6582 46.5332 64.1797C46.0156 63.6914 45.3467 63.4473 44.5264 63.4473H41.9336V68.6768ZM56.1719 80V58.8623H71.084V63.7842H62.3828V67.1533H70.542V71.7236H62.3828V75.0781H71.084V80H56.1719ZM73.9844 80V58.8623H88.8965V63.7842H80.1953V67.1533H88.3545V71.7236H80.1953V75.0781H88.8965V80H73.9844ZM91.5039 80V76.1035L100.923 63.9014V63.7842H91.5918V58.8623H108.159V62.7441L98.7695 74.9609V75.0781H108.511V80H91.5039ZM111.162 80V58.8623H126.074V63.7842H117.373V67.1533H125.532V71.7236H117.373V75.0781H126.074V80H111.162Z" fill="#8DFF00"/>
</svg>
